<?xml version="1.0" encoding="UTF-8"?>
<svg id="Layer_2" data-name="Layer 2" xmlns="http://www.w3.org/2000/svg" viewBox="0 0 216 216">
  <defs>
    <style>
      .cls-1 {
        fill: #051526;
      }

      .cls-2 {
        fill: #fff;
      }
    </style>
  </defs>
  <rect class="cls-1" width="216" height="216"/>
  <g>
    <path class="cls-2" d="M48.83,128.1h-6.21v-15.06l-14.44-25.14h6.72l11.03,19.37,11.14-19.37h6.27l-14.5,25.14v15.06Z"/>
    <path class="cls-2" d="M93.61,128.1h-25.47v-40.2h25.08v5.37h-18.92v11.42h17.24v5.37h-17.24v12.65h19.31v5.38Z"/>
    <path class="cls-2" d="M98.48,107.94c0-11.87,8.79-20.88,20.43-20.88s20.43,9.01,20.43,20.88-8.79,20.99-20.43,20.99-20.43-9.13-20.43-20.99ZM132.97,107.94c0-8.62-5.54-15.34-14.05-15.34s-14.05,6.72-14.05,15.34,5.54,15.45,14.05,15.45,14.05-6.83,14.05-15.45Z"/>
    <path class="cls-2" d="M151.39,97.36v30.74h-5.65v-40.2h7.56l13.49,32.64,13.44-32.64h7.61v40.2h-5.71v-30.79l-12.76,30.79h-5.26l-12.71-30.74Z"/>
  </g>
</svg>