<?xml version="1.0" encoding="UTF-8"?>
<svg id="Layer_1" data-name="Layer 1" xmlns="http://www.w3.org/2000/svg" viewBox="0 0 1620 1620">
  <defs>
    <style>
      .cls-1 {
        fill: #fff;
      }
    </style>
  </defs>
  <rect class="cls-1" width="1620" height="1620" rx="100" ry="100"/>
  <path d="M814.59,1461.66c-68.54,0-134.32-6.73-197.35-20.18-63.03-13.46-119-35.17-167.96-65.16-48.96-29.99-87.82-68.85-116.57-116.57-28.77-47.72-43.13-106.48-43.13-176.23,0-6.11.29-12.24.91-18.35.62-6.11.93-12.24.93-18.37h176.23c0,3.67-.31,9.49-.93,17.44-.62,7.97-.91,15.01-.91,21.11,0,48.96,14.67,90.56,44.04,124.82s70.07,59.67,122.08,76.18c52.01,16.53,111.06,24.79,177.14,24.79,29.37,0,60.26-1.84,92.71-5.51,32.42-3.67,63.63-10.09,93.62-19.28,29.97-9.16,56.9-21.4,80.76-36.72,23.86-15.29,42.85-34.26,56.92-56.9,14.08-22.62,21.11-50.46,21.11-83.52,0-41.61-11.95-76.18-35.81-103.71-23.86-27.53-55.37-50.17-94.55-67.92-39.17-17.75-83.52-33.66-133.08-47.74-49.57-14.08-100.65-27.84-153.28-41.3-52.63-13.46-103.71-29.06-153.28-46.81-49.57-17.75-93.93-39.77-133.08-66.08-39.17-26.29-70.69-59.02-94.55-98.2-23.86-39.17-35.79-86.89-35.79-143.19,0-52.63,10.69-99.75,32.11-141.35,21.42-41.61,53.23-76.77,95.45-105.55,42.23-28.75,94.55-50.77,156.96-66.08,62.41-15.29,134.01-22.95,214.79-22.95,66.08,0,127.57,7.04,184.49,21.11,56.9,14.08,107.07,35.5,150.52,64.25,43.44,28.77,77.39,65.18,101.87,109.22,24.48,44.06,36.72,97.29,36.72,159.7v22.04h-172.54v-27.55c0-41.61-12.86-77.08-38.55-106.45-25.72-29.37-60.91-52.01-105.57-67.92s-95.14-23.88-151.42-23.88c-73.43,0-134.63,7.04-183.58,21.11-48.96,14.08-85.36,34.28-109.22,60.6-23.86,26.31-35.79,55.99-35.79,89.01,0,37.96,11.93,69.78,35.79,95.48,23.86,25.69,55.37,46.81,94.55,63.32,39.15,16.53,83.81,31.52,133.98,44.97,50.17,13.46,101.27,27.22,153.28,41.3,52.01,14.08,102.8,29.99,152.38,47.74,49.55,17.75,94.21,39.79,133.98,66.08,39.77,26.31,71.29,59.36,94.55,99.13,23.24,39.77,34.88,88.42,34.88,145.94,0,89.35-22.04,161.85-66.08,217.53-44.06,55.68-104.64,96.38-181.74,122.08-77.11,25.67-166.43,38.53-267.99,38.53Z"/>
</svg>