<?xml version="1.0" encoding="UTF-8"?>
<svg id="Layer_1" data-name="Layer 1" xmlns="http://www.w3.org/2000/svg" viewBox="0 0 899.55 123.19">
  <g>
    <path d="M0,66.69h10.32c1.36,15.08,10.59,25.26,30.83,25.26,17.93,0,24.04-8.56,24.04-19.29.14-14.4-9.91-16.84-29.88-21.32-15.89-3.67-31.24-8.56-31.24-26.35C4.07,9.51,16.43,0,36.4,0c21.05,0,34.36,10.73,35.86,29.74h-10.32c-1.63-13.45-9.1-21.05-25.53-21.05-14.26,0-22,5.84-22,15.89,0,13.04,11.54,15.76,25.81,18.88,19.97,4.35,35.31,9.24,35.31,28.93,0,15.76-10.87,28.25-33.96,28.25S1.36,88.56,0,66.69Z"/>
    <path d="M83.39,122.65v-7.61c2.04.27,3.12.41,5.3.41,6.52,0,11.82-4.21,15.62-16.98l-27.98-68.86h9.78l22.55,57.72h.27l21.46-57.72h9.51l-27.71,71.31c-6.79,17.25-12.9,22.28-22.14,22.28-2.17,0-3.8-.14-6.66-.54Z"/>
    <path d="M194.76,1.77h8.83v97.11h-8.83v-11.27h-.27c-3.94,6.79-11.27,13.04-23.36,13.04-16.84,0-30.42-13.58-30.42-36.4s13.58-36.26,30.42-36.26c12.09,0,19.29,5.98,23.36,13.31h.27V1.77ZM194.76,64.24c0-17.39-9.24-28.52-22.55-28.52-14.4,0-22.27,13.04-22.27,28.52s7.88,28.66,22.27,28.66c13.31,0,22.55-11.14,22.55-28.66Z"/>
    <path d="M272.71,50.25v48.62h-8.83v-46.72c0-8.83-4.07-16.43-16.03-16.43-13.17,0-21.87,9.24-21.87,19.42v43.73h-8.83V29.61h8.83v9.91h.27c3.94-5.7,11.41-11.54,23.77-11.54s22.68,6.93,22.68,22.27Z"/>
    <path d="M346.05,66.01h-54.87c.14,13.99,7.61,27.16,23.9,27.16,14.26,0,19.83-9.78,21.19-15.48h8.96c-3.4,12.63-12.9,23.09-30.29,23.09-21.19,0-33-15.48-33-36.54,0-22.14,13.04-36.4,33-36.4s31.24,13.99,31.24,33.28c0,1.9,0,3.8-.14,4.89ZM336.82,58.27c0-12.36-8.01-22.82-22.27-22.82-13.45,0-22.68,9.91-23.36,22.82h45.64Z"/>
    <path d="M353.79,122.65v-7.61c2.04.27,3.12.41,5.3.41,6.52,0,11.82-4.21,15.62-16.98l-27.98-68.86h9.78l22.55,57.72h.27l21.46-57.72h9.51l-27.71,71.31c-6.79,17.25-12.9,22.28-22.14,22.28-2.17,0-3.8-.14-6.66-.54Z"/>
    <path d="M436.09,66.69h10.32c1.36,15.08,10.59,25.26,30.83,25.26,17.93,0,24.04-8.56,24.04-19.29.14-14.4-9.91-16.84-29.88-21.32-15.89-3.67-31.24-8.56-31.24-26.35,0-15.48,12.36-24.99,32.33-24.99,21.05,0,34.36,10.73,35.86,29.74h-10.32c-1.63-13.45-9.1-21.05-25.53-21.05-14.26,0-22,5.84-22,15.89,0,13.04,11.54,15.76,25.81,18.88,19.97,4.35,35.31,9.24,35.31,28.93,0,15.76-10.87,28.25-33.95,28.25s-40.2-12.09-41.56-33.95Z"/>
    <path d="M519.89,98.88v-11.41h11.41v11.41h-11.41Z"/>
    <path d="M591.19,98.88v-39.8L555.74,1.77h10.73l29.61,49.57h.27l29.75-49.57h10.59l-35.58,57.32v39.8h-9.91Z"/>
    <path d="M689.52,66.01h-54.87c.14,13.99,7.61,27.16,23.9,27.16,14.26,0,19.83-9.78,21.19-15.48h8.96c-3.4,12.63-12.9,23.09-30.29,23.09-21.19,0-33-15.48-33-36.54,0-22.14,13.04-36.4,33-36.4s31.24,13.99,31.24,33.28c0,1.9,0,3.8-.14,4.89ZM680.29,58.27c0-12.36-8.01-22.82-22.27-22.82-13.45,0-22.68,9.91-23.36,22.82h45.64Z"/>
    <path d="M695.36,64.38c0-21.6,12.5-36.54,33.28-36.54s33.28,14.94,33.28,36.54-12.5,36.4-33.28,36.4-33.28-14.94-33.28-36.4ZM752.67,64.38c0-16.03-7.88-28.79-24.04-28.79s-24.04,12.77-24.04,28.79,7.88,28.66,24.04,28.66,24.04-12.77,24.04-28.66Z"/>
    <path d="M863.91,50.25v48.62h-8.83v-46.72c0-8.69-2.04-16.43-13.45-16.43-12.22,0-19.42,9.37-19.42,19.42v43.73h-8.83v-46.72c0-8.69-2.04-16.43-13.58-16.43s-19.42,9.37-19.42,19.42v43.73h-8.83V29.61h8.83v9.78h.27c3.67-5.57,10.19-11.41,21.05-11.41,9.78,0,16.03,4.48,18.61,12.77h.27c4.48-6.93,11.95-12.77,22.95-12.77,13.17,0,20.37,7.88,20.37,22.27Z"/>
  </g>
  <path d="M863.91,17.75c0-10.76,7.08-17.75,17.85-17.75s17.8,6.98,17.8,17.75-7.08,17.7-17.8,17.7-17.85-6.98-17.85-17.7ZM896.63,17.75c0-9.23-5.93-15.21-14.88-15.21s-14.97,5.98-14.97,15.21,5.98,15.17,14.97,15.17,14.88-5.98,14.88-15.17ZM872.09,17.75c0-6.31,3.59-10.86,9.76-10.86,5.26,0,8.47,3.3,8.99,7.37h-2.78c-.34-1.68-1.82-4.64-6.12-4.64-5.07,0-6.93,3.78-6.93,8.13s1.87,8.09,6.93,8.09c4.4,0,5.93-2.97,6.17-4.97h2.77c-.29,4.4-3.59,7.7-8.8,7.7-6.27,0-10-4.45-10-10.81Z"/>
</svg>